<svg xmlns="http://www.w3.org/2000/svg" viewBox="0 0 512 512">
  <rect width="512" height="512" fill="#003366" rx="100"/>
  <path fill="#ffffff" d="M256 100c-15 0-28 12-28 28v20c0 10 5 18 12 24v40c-7 6-12 14-12 24v40c0 10 5 18 12 24v40c-7 6-12 14-12 24v40c0 10 5 18 12 24v20c0 16 13 28 28 28s28-12 28-28v-20c0-10-5-18-12-24v-40c7-6 12-14 12-24v-40c0-10-5-18-12-24v-40c7-6 12-14 12-24v-40c0-10-5-18-12-24v-20c0-16-13-28-28-28z"/>
  <path fill="#ffffff" opacity="0.5" d="M180 180 h152 v20 h-152 z M200 280 h112 v20 h-112 z M190 380 h132 v20 h-132 z"/>
</svg>
